<?xml version="1.0" standalone="no"?>
<!DOCTYPE svg PUBLIC "-//W3C//DTD SVG 20010904//EN"
 "http://www.w3.org/TR/2001/REC-SVG-20010904/DTD/svg10.dtd">
<svg version="1.0" xmlns="http://www.w3.org/2000/svg"
 width="16.000000pt" height="16.000000pt" viewBox="0 0 16.000000 16.000000"
 preserveAspectRatio="xMidYMid meet">
<metadata>
Created by potrace 1.11, written by Peter Selinger 2001-2013
</metadata>
<g transform="translate(0.000000,16.000000) scale(0.002286,-0.002286)"
fill="#000000" stroke="none">
<path d="M3435 6984 c-41 -21 -59 -43 -78 -94 -13 -34 -232 -809 -252 -890 -2
-8 -17 -64 -34 -125 -16 -60 -36 -130 -42 -155 -7 -25 -13 -47 -14 -50 -1 -3
-5 -18 -9 -35 -5 -16 -39 -147 -77 -290 -38 -143 -74 -280 -80 -305 -6 -25
-15 -56 -20 -70 -5 -14 -10 -36 -13 -50 -2 -14 -39 -161 -81 -328 -42 -167
-79 -314 -81 -328 -2 -13 -23 -100 -45 -192 -64 -264 -141 -607 -162 -722 -3
-14 -16 -81 -30 -150 -14 -69 -28 -138 -30 -155 -3 -16 -14 -82 -26 -145 -11
-63 -23 -137 -27 -165 -3 -27 -8 -59 -10 -70 -21 -102 -41 -346 -38 -465 3
-137 28 -285 65 -377 7 -16 15 -37 18 -48 4 -11 25 -56 47 -99 101 -203 269
-383 464 -497 67 -39 100 -55 217 -105 17 -8 39 -14 48 -14 9 0 25 -4 35 -10
10 -5 52 -15 93 -21 l75 -11 1 -477 0 -476 25 -22 c14 -12 50 -27 81 -34 48
-11 63 -10 111 5 90 29 85 -1 87 533 l2 467 80 17 c132 27 203 52 330 116 220
112 436 339 541 569 35 76 81 220 89 279 3 17 8 55 13 85 9 60 8 242 -2 329
-3 29 -9 83 -12 120 -3 36 -7 73 -9 81 -2 8 -7 38 -10 65 -9 68 -13 97 -30
190 -7 44 -16 96 -19 116 -3 20 -8 42 -10 50 -3 8 -7 30 -10 49 -10 62 -43
230 -81 400 -19 91 -45 208 -56 260 -11 52 -32 142 -46 199 -13 57 -26 111
-28 120 -16 72 -77 327 -80 332 -2 3 -6 16 -8 30 -3 13 -37 152 -77 309 -39
157 -73 292 -75 300 -2 9 -17 67 -34 130 -17 63 -65 243 -107 400 -78 291 -85
318 -149 545 -20 72 -42 153 -50 180 -179 654 -178 651 -225 685 -39 28 -116
34 -155 14z"/>
</g>
</svg>
